<svg width="180" height="180" viewBox="0 0 180 180" fill="none" xmlns="http://www.w3.org/2000/svg">
  <!-- Background with gradient -->
  <defs>
    <linearGradient id="bgGradient" x1="0%" y1="0%" x2="100%" y2="100%">
      <stop offset="0%" style="stop-color:#1a8917;stop-opacity:1" />
      <stop offset="100%" style="stop-color:#0f5a0f;stop-opacity:1" />
    </linearGradient>
    <filter id="shadow" x="-20%" y="-20%" width="140%" height="140%">
      <feDropShadow dx="0" dy="2" stdDeviation="3" flood-color="#000000" flood-opacity="0.3"/>
    </filter>
  </defs>
  
  <!-- Main background circle -->
  <circle cx="90" cy="90" r="85" fill="url(#bgGradient)" stroke="#ffffff" stroke-width="2" filter="url(#shadow)"/>
  
  <!-- News paper/document -->
  <rect x="50" y="40" width="80" height="100" rx="3" fill="white" stroke="#e0e0e0" stroke-width="1"/>
  
  <!-- Document lines representing text -->
  <rect x="60" y="55" width="60" height="3" fill="#1a8917"/>
  <rect x="60" y="65" width="50" height="3" fill="#1a8917"/>
  <rect x="60" y="75" width="55" height="3" fill="#1a8917"/>
  <rect x="60" y="85" width="45" height="3" fill="#1a8917"/>
  <rect x="60" y="95" width="60" height="3" fill="#1a8917"/>
  <rect x="60" y="105" width="40" height="3" fill="#1a8917"/>
  <rect x="60" y="115" width="55" height="3" fill="#1a8917"/>
  <rect x="60" y="125" width="35" height="3" fill="#1a8917"/>
  
  <!-- Niche accent - small dot -->
  <circle cx="125" cy="50" r="4" fill="#1a8917"/>
  
  <!-- Corner fold effect -->
  <path d="M130 40 L130 50 L120 40 Z" fill="#f0f0f0"/>
  
  <!-- Small accent line -->
  <rect x="60" y="135" width="25" height="2" fill="#1a8917" opacity="0.7"/>
</svg> 